<svg width="105" height="70" viewBox="0 0 105 70" fill="none" xmlns="http://www.w3.org/2000/svg">
<rect width="105" height="52.2989" rx="8" fill="#8F0078"/>
<path d="M11.876 45.2H7.052V33.356L7.988 27.524H10.94L11.876 33.356V45.2ZM6.584 22.34C6.584 21.5 6.848 20.84 7.376 20.36C7.904 19.856 8.6 19.604 9.464 19.604C10.376 19.604 11.096 19.856 11.624 20.36C12.152 20.84 12.416 21.5 12.416 22.34C12.416 23.18 12.152 23.852 11.624 24.356C11.096 24.86 10.376 25.112 9.464 25.112C8.6 25.112 7.904 24.86 7.376 24.356C6.848 23.852 6.584 23.18 6.584 22.34ZM31.8549 27.452H22.6389V38H17.7069V12.8H22.6389V23.06H31.8549V12.8H36.7869V38H31.8549V27.452ZM40.1841 29C40.1841 25.952 40.9281 23.612 42.4161 21.98C43.9041 20.324 45.9921 19.496 48.6801 19.496C50.1201 19.496 51.3681 19.724 52.4241 20.18C53.4801 20.636 54.3561 21.284 55.0521 22.124C55.7481 22.94 56.2641 23.936 56.6001 25.112C56.9601 26.288 57.1401 27.584 57.1401 29C57.1401 32.048 56.3961 34.4 54.9081 36.056C53.4441 37.688 51.3681 38.504 48.6801 38.504C47.2401 38.504 45.9921 38.276 44.9361 37.82C43.8801 37.364 42.9921 36.728 42.2721 35.912C41.5761 35.072 41.0481 34.064 40.6881 32.888C40.3521 31.712 40.1841 30.416 40.1841 29ZM45.0081 29C45.0081 29.792 45.0801 30.524 45.2241 31.196C45.3681 31.868 45.5841 32.456 45.8721 32.96C46.1601 33.464 46.5321 33.86 46.9881 34.148C47.4681 34.412 48.0321 34.544 48.6801 34.544C49.9041 34.544 50.8161 34.1 51.4161 33.212C52.0161 32.324 52.3161 30.92 52.3161 29C52.3161 27.344 52.0401 26.012 51.4881 25.004C50.9361 23.972 50.0001 23.456 48.6801 23.456C47.5281 23.456 46.6281 23.888 45.9801 24.752C45.3321 25.616 45.0081 27.032 45.0081 29ZM65.208 31.952C65.208 32.792 65.316 33.404 65.532 33.788C65.748 34.172 66.096 34.364 66.576 34.364C66.864 34.364 67.14 34.34 67.404 34.292C67.692 34.244 68.04 34.136 68.448 33.968L68.952 37.64C68.568 37.832 67.98 38.024 67.188 38.216C66.396 38.408 65.58 38.504 64.74 38.504C63.372 38.504 62.328 38.192 61.608 37.568C60.888 36.92 60.528 35.864 60.528 34.4V12.8H65.208V31.952ZM70.8581 21.044C71.8181 20.612 72.9581 20.276 74.2781 20.036C75.5981 19.772 76.9781 19.64 78.4181 19.64C79.6661 19.64 80.7101 19.796 81.5501 20.108C82.3901 20.396 83.0501 20.816 83.5301 21.368C84.0341 21.92 84.3821 22.58 84.5741 23.348C84.7901 24.116 84.8981 24.98 84.8981 25.94C84.8981 26.996 84.8621 28.064 84.7901 29.144C84.7181 30.2 84.6701 31.244 84.6461 32.276C84.6461 33.308 84.6821 34.316 84.7541 35.3C84.8261 36.26 85.0061 37.172 85.2941 38.036H81.4781L80.7221 35.552H80.5421C80.0621 36.296 79.3901 36.944 78.5261 37.496C77.6861 38.024 76.5941 38.288 75.2501 38.288C74.4101 38.288 73.6541 38.168 72.9821 37.928C72.3101 37.664 71.7341 37.304 71.2541 36.848C70.7741 36.368 70.4021 35.816 70.1381 35.192C69.8741 34.544 69.7421 33.824 69.7421 33.032C69.7421 31.928 69.9821 31.004 70.4621 30.26C70.9661 29.492 71.6741 28.88 72.5861 28.424C73.5221 27.944 74.6261 27.62 75.8981 27.452C77.1941 27.26 78.6341 27.2 80.2181 27.272C80.3861 25.928 80.2901 24.968 79.9301 24.392C79.5701 23.792 78.7661 23.492 77.5181 23.492C76.5821 23.492 75.5861 23.588 74.5301 23.78C73.4981 23.972 72.6461 24.224 71.9741 24.536L70.8581 21.044ZM76.7981 34.436C77.7341 34.436 78.4781 34.232 79.0301 33.824C79.5821 33.392 79.9901 32.936 80.2541 32.456V30.116C79.5101 30.044 78.7901 30.032 78.0941 30.08C77.4221 30.128 76.8221 30.236 76.2941 30.404C75.7661 30.572 75.3461 30.812 75.0341 31.124C74.7221 31.436 74.5661 31.832 74.5661 32.312C74.5661 32.984 74.7581 33.512 75.1421 33.896C75.5501 34.256 76.1021 34.436 76.7981 34.436ZM90.3734 12.8H95.1974V24.644L94.2614 30.512H91.3094L90.3734 24.644V12.8ZM89.8694 35.624C89.8694 34.784 90.1334 34.124 90.6614 33.644C91.1894 33.14 91.8854 32.888 92.7494 32.888C93.6614 32.888 94.3814 33.14 94.9094 33.644C95.4374 34.124 95.7014 34.784 95.7014 35.624C95.7014 36.464 95.4374 37.136 94.9094 37.64C94.3814 38.144 93.6614 38.396 92.7494 38.396C91.8854 38.396 91.1894 38.144 90.6614 37.64C90.1334 37.136 89.8694 36.464 89.8694 35.624Z" fill="#FFD9D9"/>
<path d="M28.2132 69.5517L42.2543 49.6379H14.1722L28.2132 69.5517Z" fill="#8F0078"/>
</svg>
