<?xml version="1.0" encoding="iso-8859-1"?>
<!-- Generator: Adobe Illustrator 19.0.0, SVG Export Plug-In . SVG Version: 6.00 Build 0)  -->
<svg version="1.1" id="Layer_1" xmlns="http://www.w3.org/2000/svg" xmlns:xlink="http://www.w3.org/1999/xlink" x="0px" y="0px"
	 viewBox="0 0 512 512" style="enable-background:new 0 0 512 512;" xml:space="preserve">
<path style="fill:#8AE9FF;" d="M461.189,330.006L301.802,489.393c-8,8.001-18.639,12.407-29.954,12.407
	c-11.316,0-21.954-4.406-29.956-12.407c-8.001-8.001-12.408-18.64-12.408-29.955c0-11.316,4.407-21.955,12.408-29.956l87.071-87.07
	H80.921c-23.359,0-42.519-18.452-42.519-41.811V52.562c0-23.358,18.926-42.362,42.285-42.362s42.362,19.004,42.362,42.362v205.126
	h205.914l-87.071-87.07c-8.001-8.001-12.408-18.64-12.408-29.956c0-11.315,4.407-21.954,12.408-29.955
	c8.002-8.001,18.64-12.407,29.956-12.407c11.316,0,21.954,4.406,29.955,12.407L461.19,270.094
	c8.001,8.002,12.407,18.64,12.407,29.955C473.597,311.366,469.19,322.004,461.189,330.006z"/>
<g>
	<path style="fill:#248A9C;" d="M271.848,512c-14.04,0-27.24-5.467-37.168-15.395c-9.927-9.928-15.395-23.127-15.395-37.167
		c0-14.04,5.467-27.24,15.395-37.168l69.66-69.658H80.922c-29.07,0-52.719-23.332-52.719-52.01V52.562
		C28.202,23.58,51.746,0,80.685,0c28.983,0,52.562,23.58,52.562,52.562v194.927h171.092l-69.66-69.658
		c-9.927-9.928-15.395-23.128-15.395-37.168c0-14.04,5.467-27.239,15.395-37.167c9.928-9.927,23.129-15.395,37.168-15.395
		s27.239,5.468,37.166,15.396l159.389,159.387c9.927,9.929,15.395,23.129,15.395,37.167c0,14.038-5.467,27.238-15.395,37.166l0,0
		L309.014,496.605C299.087,506.532,285.888,512,271.848,512z M80.685,20.398c-17.692,0-32.085,14.428-32.085,32.163v248.042
		c0,17.43,14.499,31.611,32.32,31.611h248.041c4.126,0,7.844,2.486,9.423,6.296c1.578,3.811,0.705,8.198-2.211,11.115l-87.071,87.07
		c-6.075,6.075-9.42,14.151-9.42,22.743c0,8.591,3.345,16.669,9.42,22.743c6.075,6.075,14.152,9.42,22.744,9.42
		c8.591,0,16.668-3.345,22.742-9.42l159.387-159.387l0,0c6.075-6.076,9.42-14.152,9.42-22.743s-3.345-16.668-9.42-22.743
		L294.59,117.921c-6.075-6.075-14.151-9.42-22.742-9.42c-8.592,0-16.67,3.345-22.744,9.42c-6.075,6.075-9.42,14.151-9.42,22.742
		c0,8.592,3.345,16.67,9.42,22.744l87.071,87.069c2.916,2.917,3.789,7.304,2.211,11.115c-1.579,3.811-5.297,6.296-9.423,6.296
		H123.049c-5.632,0-10.199-4.566-10.199-10.199V52.562C112.85,34.826,98.421,20.398,80.685,20.398z"/>
	<path style="fill:#248A9C;" d="M345.748,205.778c-2.611,0-5.22-0.995-7.212-2.987l-3.019-3.019c-3.983-3.983-3.983-10.441,0-14.425
		c3.984-3.983,10.44-3.983,14.425,0l3.019,3.019c3.983,3.983,3.983,10.441,0,14.425
		C350.968,204.783,348.359,205.778,345.748,205.778z"/>
	<path style="fill:#248A9C;" d="M438.334,298.364c-2.611,0-5.22-0.995-7.212-2.987l-70.42-70.42c-3.983-3.983-3.983-10.441,0-14.425
		c3.984-3.983,10.44-3.983,14.425,0l70.42,70.42c3.983,3.983,3.983,10.441,0,14.425
		C443.555,297.369,440.945,298.364,438.334,298.364z"/>
</g>
<g>
</g>
<g>
</g>
<g>
</g>
<g>
</g>
<g>
</g>
<g>
</g>
<g>
</g>
<g>
</g>
<g>
</g>
<g>
</g>
<g>
</g>
<g>
</g>
<g>
</g>
<g>
</g>
<g>
</g>
</svg>
