<svg width="227" height="72" viewBox="0 0 227 72" fill="none" xmlns="http://www.w3.org/2000/svg">
<mask id="path-1-inside-1_103_6" fill="white">
<rect width="72" height="72" rx="3"/>
</mask>
<rect width="72" height="72" rx="3" stroke="#8F0078" stroke-width="18" mask="url(#path-1-inside-1_103_6)"/>
<g filter="url(#filter0_f_103_6)">
<path d="M40.376 44.976C40.376 43.952 39.992 43.12 39.224 42.48C38.488 41.84 37.544 41.264 36.392 40.752C35.272 40.208 34.04 39.664 32.696 39.12C31.384 38.544 30.152 37.856 29 37.056C27.88 36.224 26.936 35.2 26.168 33.984C25.432 32.768 25.064 31.216 25.064 29.328C25.064 27.696 25.336 26.288 25.88 25.104C26.424 23.888 27.192 22.88 28.184 22.08C29.208 21.28 30.408 20.688 31.784 20.304C33.16 19.92 34.696 19.728 36.392 19.728C38.344 19.728 40.184 19.904 41.912 20.256C43.64 20.576 45.064 21.056 46.184 21.696L44.12 27.216C43.416 26.768 42.36 26.368 40.952 26.016C39.544 25.632 38.024 25.44 36.392 25.44C34.856 25.44 33.672 25.744 32.84 26.352C32.04 26.96 31.64 27.776 31.64 28.8C31.64 29.76 32.008 30.56 32.744 31.2C33.512 31.84 34.456 32.432 35.576 32.976C36.728 33.52 37.96 34.08 39.272 34.656C40.616 35.232 41.848 35.936 42.968 36.768C44.12 37.568 45.064 38.576 45.8 39.792C46.568 40.976 46.952 42.464 46.952 44.256C46.952 46.048 46.648 47.6 46.04 48.912C45.464 50.192 44.632 51.264 43.544 52.128C42.488 52.992 41.192 53.632 39.656 54.048C38.152 54.464 36.488 54.672 34.664 54.672C32.264 54.672 30.152 54.448 28.328 54C26.504 53.552 25.16 53.104 24.296 52.656L26.408 47.04C26.76 47.232 27.208 47.44 27.752 47.664C28.328 47.888 28.968 48.096 29.672 48.288C30.376 48.48 31.112 48.64 31.88 48.768C32.68 48.896 33.496 48.96 34.328 48.96C36.28 48.96 37.768 48.64 38.792 48C39.848 47.328 40.376 46.32 40.376 44.976Z" fill="white"/>
</g>
<path d="M100.728 52.512C99.768 53.216 98.6 53.744 97.224 54.096C95.88 54.48 94.488 54.672 93.048 54.672C91.128 54.672 89.496 54.368 88.152 53.76C86.84 53.152 85.768 52.304 84.936 51.216C84.104 50.096 83.496 48.752 83.112 47.184C82.76 45.616 82.584 43.888 82.584 42C82.584 37.936 83.496 34.816 85.32 32.64C87.144 30.432 89.8 29.328 93.288 29.328C95.048 29.328 96.456 29.472 97.512 29.76C98.6 30.048 99.576 30.416 100.44 30.864L98.952 35.952C98.216 35.6 97.48 35.328 96.744 35.136C96.04 34.944 95.224 34.848 94.296 34.848C92.568 34.848 91.256 35.424 90.36 36.576C89.464 37.696 89.016 39.504 89.016 42C89.016 43.024 89.128 43.968 89.352 44.832C89.576 45.696 89.912 46.448 90.36 47.088C90.808 47.728 91.384 48.24 92.088 48.624C92.824 48.976 93.672 49.152 94.632 49.152C95.688 49.152 96.584 49.024 97.32 48.768C98.056 48.48 98.712 48.144 99.288 47.76L100.728 52.512ZM110.502 30V43.632C110.502 45.584 110.726 46.992 111.174 47.856C111.654 48.72 112.566 49.152 113.91 49.152C115.094 49.152 116.07 48.8 116.838 48.096C117.638 47.392 118.23 46.528 118.614 45.504V30H124.854V46.704C124.854 48.016 124.918 49.312 125.046 50.592C125.174 51.84 125.366 52.976 125.622 54H120.918L119.814 50.448H119.622C118.886 51.664 117.862 52.672 116.55 53.472C115.238 54.272 113.686 54.672 111.894 54.672C110.678 54.672 109.59 54.512 108.63 54.192C107.67 53.872 106.87 53.344 106.23 52.608C105.59 51.872 105.094 50.88 104.742 49.632C104.422 48.384 104.262 46.816 104.262 44.928V30H110.502ZM143.962 54V40.944C143.962 38.736 143.754 37.168 143.338 36.24C142.922 35.312 142.058 34.848 140.746 34.848C139.658 34.848 138.778 35.152 138.106 35.76C137.434 36.336 136.922 37.088 136.57 38.016V54H130.33V30H135.178L135.898 33.168H136.09C136.826 32.144 137.754 31.248 138.874 30.48C140.026 29.712 141.498 29.328 143.29 29.328C144.826 29.328 146.074 29.648 147.034 30.288C148.026 30.896 148.794 31.936 149.338 33.408C150.074 32.16 151.018 31.168 152.17 30.432C153.322 29.696 154.714 29.328 156.346 29.328C157.69 29.328 158.826 29.488 159.754 29.808C160.714 30.128 161.482 30.688 162.058 31.488C162.666 32.256 163.114 33.296 163.402 34.608C163.69 35.92 163.834 37.584 163.834 39.6V54H157.594V40.512C157.594 38.624 157.386 37.216 156.97 36.288C156.586 35.328 155.706 34.848 154.33 34.848C153.21 34.848 152.314 35.152 151.642 35.76C151.002 36.368 150.522 37.2 150.202 38.256V54H143.962ZM186.331 30L190.699 42.288L191.563 46.272H191.755L192.427 42.24L195.499 30H201.211L193.819 54.24H189.211L184.363 40.8L183.739 37.776H183.499L182.923 40.848L178.315 54.24H173.563L165.835 30H172.603L176.107 42.048L176.683 46.32H176.923L177.739 42L181.723 30H186.331ZM223.949 45.552C223.949 46.896 223.965 48.24 223.997 49.584C224.029 50.928 224.173 52.416 224.429 54.048H219.965L219.101 50.928H218.909C218.269 52.048 217.341 52.96 216.125 53.664C214.941 54.336 213.533 54.672 211.901 54.672C208.893 54.672 206.557 53.68 204.893 51.696C203.229 49.712 202.396 46.608 202.396 42.384C202.396 38.288 203.325 35.104 205.181 32.832C207.037 30.56 209.757 29.424 213.341 29.424C214.333 29.424 215.149 29.488 215.789 29.616C216.429 29.712 217.069 29.888 217.709 30.144V20.4H223.949V45.552ZM213.341 49.392C214.557 49.392 215.517 49.104 216.221 48.528C216.925 47.92 217.421 47.056 217.709 45.936V35.76C217.261 35.408 216.765 35.152 216.221 34.992C215.677 34.8 214.973 34.704 214.109 34.704C212.349 34.704 211.021 35.296 210.125 36.48C209.261 37.664 208.829 39.696 208.829 42.576C208.829 44.624 209.181 46.272 209.885 47.52C210.621 48.768 211.773 49.392 213.341 49.392Z" fill="white"/>
<defs>
<filter id="filter0_f_103_6" x="20.296" y="15.728" width="30.656" height="42.944" filterUnits="userSpaceOnUse" color-interpolation-filters="sRGB">
<feFlood flood-opacity="0" result="BackgroundImageFix"/>
<feBlend mode="normal" in="SourceGraphic" in2="BackgroundImageFix" result="shape"/>
<feGaussianBlur stdDeviation="2" result="effect1_foregroundBlur_103_6"/>
</filter>
</defs>
</svg>
