<svg width="524" height="167" viewBox="0 0 524 167" fill="none" xmlns="http://www.w3.org/2000/svg">
<rect x="81" width="271.209" height="57.2754" rx="8" fill="#8F0078"/>
<path d="M137.712 32.876L138.18 37.34H138.324L138.828 32.804L143.22 18.8H146.46L150.78 32.876L151.284 37.34H151.428L151.968 32.804L155.028 18.8H160.032L153.084 44.18H149.772L145.272 30.176L144.66 26.324H144.48L143.868 30.212L139.404 44.18H135.912L129 18.8H134.364L137.712 32.876ZM176.351 33.452H167.135V44H162.203V18.8H167.135V29.06H176.351V18.8H181.283V44H176.351V33.452ZM198.072 38.42H190.332L188.424 44H183.492L192.564 18.62H196.2L205.272 44H200.088L198.072 38.42ZM191.592 34.46H196.992L195.12 28.844L194.364 24.884H194.184L193.428 28.88L191.592 34.46ZM222.529 23.192H215.185V44H210.253V23.192H202.873V18.8H222.529V23.192ZM233.266 18.8H238.198V44H233.266V18.8ZM252.133 18.8C252.637 18.728 253.201 18.668 253.825 18.62C254.473 18.572 255.133 18.536 255.805 18.512C256.477 18.488 257.125 18.476 257.749 18.476C258.397 18.452 258.973 18.44 259.477 18.44C261.709 18.44 263.617 18.752 265.201 19.376C266.785 20 268.069 20.876 269.053 22.004C270.037 23.132 270.757 24.476 271.213 26.036C271.669 27.596 271.897 29.312 271.897 31.184C271.897 32.888 271.681 34.532 271.249 36.116C270.817 37.7 270.097 39.104 269.089 40.328C268.081 41.552 266.749 42.536 265.093 43.28C263.461 44.024 261.433 44.396 259.009 44.396C258.625 44.396 258.109 44.384 257.461 44.36C256.837 44.336 256.177 44.3 255.481 44.252C254.809 44.228 254.161 44.192 253.537 44.144C252.913 44.12 252.445 44.084 252.133 44.036V18.8ZM259.873 22.832C259.345 22.832 258.805 22.844 258.253 22.868C257.725 22.892 257.329 22.928 257.065 22.976V39.86C257.161 39.884 257.317 39.908 257.533 39.932C257.773 39.932 258.025 39.944 258.289 39.968C258.553 39.968 258.805 39.98 259.045 40.004C259.285 40.004 259.465 40.004 259.585 40.004C260.977 40.004 262.129 39.764 263.041 39.284C263.977 38.78 264.709 38.12 265.237 37.304C265.789 36.488 266.173 35.552 266.389 34.496C266.605 33.416 266.713 32.312 266.713 31.184C266.713 30.2 266.617 29.216 266.425 28.232C266.233 27.224 265.873 26.324 265.345 25.532C264.841 24.74 264.145 24.092 263.257 23.588C262.369 23.084 261.241 22.832 259.873 22.832ZM274.649 31.4C274.649 27.2 275.573 23.972 277.421 21.716C279.269 19.436 281.909 18.296 285.341 18.296C287.141 18.296 288.713 18.608 290.057 19.232C291.401 19.856 292.517 20.744 293.405 21.896C294.293 23.048 294.953 24.428 295.385 26.036C295.817 27.644 296.033 29.432 296.033 31.4C296.033 35.6 295.097 38.84 293.225 41.12C291.377 43.376 288.749 44.504 285.341 44.504C283.517 44.504 281.933 44.192 280.589 43.568C279.245 42.944 278.129 42.056 277.241 40.904C276.377 39.752 275.729 38.372 275.297 36.764C274.865 35.156 274.649 33.368 274.649 31.4ZM279.833 31.4C279.833 32.672 279.941 33.848 280.157 34.928C280.373 35.984 280.697 36.896 281.129 37.664C281.585 38.432 282.161 39.032 282.857 39.464C283.553 39.896 284.381 40.112 285.341 40.112C287.093 40.112 288.449 39.428 289.409 38.06C290.369 36.692 290.849 34.472 290.849 31.4C290.849 30.176 290.741 29.036 290.525 27.98C290.333 26.924 290.021 26 289.589 25.208C289.157 24.416 288.593 23.804 287.897 23.372C287.201 22.916 286.349 22.688 285.341 22.688C283.589 22.688 282.233 23.396 281.273 24.812C280.313 26.204 279.833 28.4 279.833 31.4Z" fill="#FFD9D9"/>
<path d="M113.477 76L125.813 52.0435H101.141L113.477 76Z" fill="#8F0078"/>
<path d="M79.872 95.92L80.512 89.2H80.192L77.76 95.344L66.112 115.568H64.512L52.16 95.28L49.856 89.2H49.536L50.432 95.856V126H45.44V81.2H49.408L63.424 104.112L65.536 109.104H65.664L67.648 103.984L81.024 81.2H85.184V126H79.872V95.92ZM105.921 108.208L91.137 81.2H97.345L107.841 100.784L108.929 104.688H108.993L110.145 100.656L120.193 81.2H125.889L111.233 108.144V126H105.921V108.208ZM164.918 113.968C164.918 112.603 164.406 111.493 163.382 110.64C162.401 109.787 161.142 109.019 159.606 108.336C158.113 107.611 156.47 106.885 154.678 106.16C152.929 105.392 151.286 104.475 149.75 103.408C148.257 102.299 146.998 100.933 145.974 99.312C144.993 97.6907 144.502 95.6213 144.502 93.104C144.502 90.928 144.865 89.0507 145.59 87.472C146.315 85.8507 147.339 84.5067 148.662 83.44C150.027 82.3733 151.627 81.584 153.462 81.072C155.297 80.56 157.345 80.304 159.606 80.304C162.209 80.304 164.662 80.5387 166.966 81.008C169.27 81.4347 171.169 82.0747 172.662 82.928L169.91 90.288C168.971 89.6907 167.563 89.1573 165.686 88.688C163.809 88.176 161.782 87.92 159.606 87.92C157.558 87.92 155.979 88.3253 154.87 89.136C153.803 89.9467 153.27 91.0347 153.27 92.4C153.27 93.68 153.761 94.7467 154.742 95.6C155.766 96.4533 157.025 97.2427 158.518 97.968C160.054 98.6933 161.697 99.44 163.446 100.208C165.238 100.976 166.881 101.915 168.374 103.024C169.91 104.091 171.169 105.435 172.15 107.056C173.174 108.635 173.686 110.619 173.686 113.008C173.686 115.397 173.281 117.467 172.47 119.216C171.702 120.923 170.593 122.352 169.142 123.504C167.734 124.656 166.006 125.509 163.958 126.064C161.953 126.619 159.734 126.896 157.302 126.896C154.102 126.896 151.286 126.597 148.854 126C146.422 125.403 144.63 124.805 143.478 124.208L146.294 116.72C146.763 116.976 147.361 117.253 148.086 117.552C148.854 117.851 149.707 118.128 150.646 118.384C151.585 118.64 152.566 118.853 153.59 119.024C154.657 119.195 155.745 119.28 156.854 119.28C159.457 119.28 161.441 118.853 162.806 118C164.214 117.104 164.918 115.76 164.918 113.968ZM179.528 81.2H206.088V89.008H188.296V99.44H204.488V107.248H188.296V118.192H206.408V126H179.528V81.2ZM212.965 81.648C213.946 81.4773 214.992 81.328 216.101 81.2C217.253 81.0293 218.384 80.9013 219.493 80.816C220.645 80.7307 221.754 80.6667 222.821 80.624C223.888 80.5813 224.869 80.56 225.765 80.56C227.856 80.56 229.904 80.752 231.909 81.136C233.957 81.52 235.77 82.1813 237.349 83.12C238.97 84.0587 240.25 85.36 241.189 87.024C242.17 88.6453 242.661 90.6933 242.661 93.168C242.661 96.8373 241.808 99.824 240.101 102.128C238.394 104.432 236.112 106.032 233.253 106.928L236.389 108.912L246.629 126H236.517L226.341 108.464L221.733 107.632V126H212.965V81.648ZM226.405 88.368C225.509 88.368 224.613 88.3893 223.717 88.432C222.864 88.4747 222.202 88.56 221.733 88.688V101.68H225.445C227.877 101.68 229.818 101.125 231.269 100.016C232.72 98.9067 233.445 97.072 233.445 94.512C233.445 92.592 232.848 91.0987 231.653 90.032C230.458 88.9227 228.709 88.368 226.405 88.368ZM263.123 107.504L264.275 115.12H264.595L265.875 107.44L274.451 81.2H283.667L267.027 126.32H260.755L243.986 81.2H254.163L263.123 107.504ZM287.799 81.2H296.567V126H287.799V81.2ZM335.489 124.144C334.123 125.125 332.374 125.829 330.241 126.256C328.15 126.683 325.995 126.896 323.777 126.896C321.089 126.896 318.529 126.491 316.097 125.68C313.707 124.827 311.595 123.483 309.76 121.648C307.926 119.771 306.454 117.36 305.345 114.416C304.278 111.429 303.745 107.824 303.745 103.6C303.745 99.2053 304.342 95.536 305.536 92.592C306.774 89.6053 308.353 87.216 310.273 85.424C312.235 83.5893 314.411 82.288 316.801 81.52C319.19 80.7093 321.579 80.304 323.969 80.304C326.529 80.304 328.683 80.4747 330.433 80.816C332.225 81.1573 333.697 81.5627 334.849 82.032L333.121 89.456C332.139 88.9867 330.966 88.6453 329.601 88.432C328.278 88.2187 326.657 88.112 324.737 88.112C321.195 88.112 318.337 89.3707 316.161 91.888C314.027 94.4053 312.961 98.3093 312.961 103.6C312.961 105.904 313.217 108.016 313.729 109.936C314.241 111.813 315.009 113.435 316.033 114.8C317.099 116.123 318.401 117.168 319.937 117.936C321.515 118.661 323.329 119.024 325.377 119.024C327.297 119.024 328.918 118.832 330.241 118.448C331.563 118.064 332.715 117.573 333.697 116.976L335.489 124.144ZM340.903 81.2H367.463V89.008H349.671V99.44H365.863V107.248H349.671V118.192H367.783V126H340.903V81.2ZM393.668 113.968C393.668 112.603 393.156 111.493 392.132 110.64C391.151 109.787 389.892 109.019 388.356 108.336C386.863 107.611 385.22 106.885 383.428 106.16C381.679 105.392 380.036 104.475 378.5 103.408C377.007 102.299 375.748 100.933 374.724 99.312C373.743 97.6907 373.252 95.6213 373.252 93.104C373.252 90.928 373.615 89.0507 374.34 87.472C375.065 85.8507 376.089 84.5067 377.412 83.44C378.777 82.3733 380.377 81.584 382.212 81.072C384.047 80.56 386.095 80.304 388.356 80.304C390.959 80.304 393.412 80.5387 395.716 81.008C398.02 81.4347 399.919 82.0747 401.412 82.928L398.66 90.288C397.721 89.6907 396.313 89.1573 394.436 88.688C392.559 88.176 390.532 87.92 388.356 87.92C386.308 87.92 384.729 88.3253 383.62 89.136C382.553 89.9467 382.02 91.0347 382.02 92.4C382.02 93.68 382.511 94.7467 383.492 95.6C384.516 96.4533 385.775 97.2427 387.268 97.968C388.804 98.6933 390.447 99.44 392.196 100.208C393.988 100.976 395.631 101.915 397.124 103.024C398.66 104.091 399.919 105.435 400.9 107.056C401.924 108.635 402.436 110.619 402.436 113.008C402.436 115.397 402.031 117.467 401.22 119.216C400.452 120.923 399.343 122.352 397.892 123.504C396.484 124.656 394.756 125.509 392.708 126.064C390.703 126.619 388.484 126.896 386.052 126.896C382.852 126.896 380.036 126.597 377.604 126C375.172 125.403 373.38 124.805 372.228 124.208L375.044 116.72C375.513 116.976 376.111 117.253 376.836 117.552C377.604 117.851 378.457 118.128 379.396 118.384C380.335 118.64 381.316 118.853 382.34 119.024C383.407 119.195 384.495 119.28 385.604 119.28C388.207 119.28 390.191 118.853 391.556 118C392.964 117.104 393.668 115.76 393.668 113.968Z" fill="white"/>
<line y1="164" x2="434" y2="164" stroke="white" stroke-width="2"/>
<line x1="137" y1="163.5" x2="297" y2="163.5" stroke="#8F0078" stroke-width="7"/>
</svg>
